<svg width="154" height="141" viewBox="0 0 154 141" fill="none" xmlns="http://www.w3.org/2000/svg">
<rect width="154" height="141" fill="black"/>
<path d="M95.6612 0H154V141H49.28L95.6612 0Z" fill="white"/>
<path d="M21.1599 100.136H19.1599V102.136H21.1599V100.136ZM21.1599 39.368V37.368H19.1599V39.368H21.1599ZM61.0959 40.712L60.6108 42.6523L60.6272 42.6564L60.6436 42.6602L61.0959 40.712ZM69.7359 45.224L71.1501 43.8098L69.7359 45.224ZM74.4399 54.344L72.4977 54.8216L72.4996 54.8291L74.4399 54.344ZM74.4399 84.776L72.4943 84.3128L74.4399 84.776ZM69.7359 94.184L71.1705 95.5776L71.1705 95.5776L69.7359 94.184ZM61.0959 98.888L61.5482 100.836L61.5646 100.832L61.581 100.828L61.0959 98.888ZM36.5199 52.328V50.328H34.5199V52.328H36.5199ZM36.5199 87.176H34.5199V89.176H36.5199V87.176ZM54.2799 85.928L53.5656 84.0599L53.5562 84.0635L53.5469 84.0672L54.2799 85.928ZM58.8879 80.84L57.0152 80.1377L57.0075 80.1584L57.0002 80.1793L58.8879 80.84ZM58.8879 58.28L57.0112 58.9714L57.0223 59.0016L57.0344 59.0314L58.8879 58.28ZM54.2799 53.48L53.5964 55.3596L53.6053 55.3628L53.6143 55.366L54.2799 53.48ZM23.1599 100.136V39.368H19.1599V100.136H23.1599ZM21.1599 41.368H47.7519V37.368H21.1599V41.368ZM47.7519 41.368C52.9651 41.368 57.2379 41.8091 60.6108 42.6523L61.581 38.7717C57.7859 37.8229 53.1627 37.368 47.7519 37.368V41.368ZM60.6436 42.6602C63.9353 43.4243 66.4579 44.7744 68.3217 46.6382L71.1501 43.8098C68.6619 41.3216 65.4245 39.6637 61.5482 38.7638L60.6436 42.6602ZM68.3217 46.6382C70.1718 48.4883 71.5988 51.1659 72.4978 54.8216L76.382 53.8664C75.361 49.7141 73.652 46.3117 71.1501 43.8098L68.3217 46.6382ZM72.4996 54.8291C73.4048 58.4498 73.8799 63.2302 73.8799 69.224H77.8799C77.8799 63.0578 77.395 57.9182 76.3802 53.8589L72.4996 54.8291ZM73.8799 69.224C73.8799 75.4768 73.4045 80.4899 72.4943 84.3128L76.3855 85.2392C77.3953 80.9981 77.8799 75.6432 77.8799 69.224H73.8799ZM72.4943 84.3128C71.5912 88.1056 70.157 90.8802 68.3013 92.7904L71.1705 95.5776C73.6668 93.0078 75.3686 89.5104 76.3855 85.2392L72.4943 84.3128ZM68.3013 92.7904C66.429 94.7179 63.9005 96.1253 60.6108 96.9477L61.581 100.828C65.4593 99.8587 68.6909 98.1301 71.1705 95.5776L68.3013 92.7904ZM60.6436 96.9398C57.2574 97.7259 52.9726 98.136 47.7519 98.136V102.136C53.1553 102.136 57.7664 101.714 61.5482 100.836L60.6436 96.9398ZM47.7519 98.136H21.1599V102.136H47.7519V98.136ZM45.5439 50.328H36.5199V54.328H45.5439V50.328ZM34.5199 52.328V87.176H38.5199V52.328H34.5199ZM36.5199 89.176H45.5439V85.176H36.5199V89.176ZM45.5439 89.176C49.3678 89.176 52.5659 88.7528 55.013 87.7888L53.5469 84.0672C51.7699 84.7672 49.144 85.176 45.5439 85.176V89.176ZM54.9942 87.7961C57.8129 86.7184 59.7207 84.5149 60.7756 81.5007L57.0002 80.1793C56.2631 82.2851 55.0989 83.4736 53.5656 84.0599L54.9942 87.7961ZM60.7606 81.5422C61.8498 78.6375 62.3279 74.4725 62.3279 69.224H58.3279C58.3279 74.3435 57.846 77.9225 57.0152 80.1377L60.7606 81.5422ZM62.3279 69.224C62.3279 64.2327 61.8512 60.2661 60.7414 57.5286L57.0344 59.0314C57.8446 61.0299 58.3279 64.3593 58.3279 69.224H62.3279ZM60.7646 57.5886C59.6914 54.6755 57.7564 52.5861 54.9455 51.594L53.6143 55.366C55.1554 55.9099 56.2924 57.0205 57.0112 58.9714L60.7646 57.5886ZM54.9634 51.6004C52.5358 50.7176 49.3575 50.328 45.5439 50.328V54.328C49.1543 54.328 51.8001 54.7064 53.5964 55.3596L54.9634 51.6004Z" fill="white"/>
<path d="M120.388 76.424L122.376 76.6449L122.456 75.9208L122.052 75.3146L120.388 76.424ZM120.196 76.136L121.86 75.0266L121.161 73.9779L119.913 74.1561L120.196 76.136ZM114.34 76.712L114.401 78.7111L114.431 78.7102L114.461 78.7083L114.34 76.712ZM108.484 76.712H106.484V78.6418L108.413 78.7107L108.484 76.712ZM108.484 64.232L108.476 62.232L106.484 62.2396V64.232H108.484ZM133.54 64.136H135.54V62.1283L133.532 62.136L133.54 64.136ZM133.54 96.776L134.371 98.5954L135.54 98.0615V96.776H133.54ZM123.46 99.944L123.833 101.909L123.846 101.907L123.859 101.904L123.46 99.944ZM91.204 97.928L90.3308 99.7273L90.3415 99.7325L90.3524 99.7376L91.204 97.928ZM81.988 87.848L80.1206 88.5642L80.124 88.5729L81.988 87.848ZM81.412 53.768L79.5332 53.0821L79.5284 53.0953L79.5238 53.1086L81.412 53.768ZM87.748 44.456L88.9884 46.0248L88.993 46.0212L87.748 44.456ZM98.02 39.848L98.4241 41.8067L98.439 41.8037L98.4538 41.8004L98.02 39.848ZM121.06 38.888L120.894 40.8811L120.897 40.8814L121.06 38.888ZM130.372 40.328H132.372V38.7345L130.819 38.3785L130.372 40.328ZM130.372 53L131.481 54.6641L132.372 54.0704V53H130.372ZM130.084 53.192L129.621 55.1376L130.468 55.3394L131.193 54.8561L130.084 53.192ZM122.02 51.848L121.826 53.8386L121.83 53.839L122.02 51.848ZM103.78 52.712L104.295 54.6445L104.31 54.6406L104.324 54.6366L103.78 52.712ZM97.06 57.608L98.7437 58.6873H98.7437L97.06 57.608ZM95.908 81.128L93.9935 81.7068L94.0017 81.7337L94.0106 81.7605L95.908 81.128ZM100.804 86.696L100.01 88.5317L100.04 88.5445L100.07 88.5563L100.804 86.696ZM113.86 88.136V90.136H113.913L113.965 90.1332L113.86 88.136ZM120.1 87.656L120.585 89.5963L122.1 89.2176V87.656H120.1ZM122.1 82.184C122.1 80.1308 122.193 78.286 122.376 76.6449L118.4 76.2031C118.199 78.018 118.1 80.0132 118.1 82.184H122.1ZM122.052 75.3146L121.86 75.0266L118.532 77.2454L118.724 77.5334L122.052 75.3146ZM119.913 74.1561C118.183 74.4033 116.286 74.5904 114.219 74.7157L114.461 78.7083C116.618 78.5776 118.625 78.3807 120.479 78.1159L119.913 74.1561ZM114.279 74.7129C112.204 74.7758 110.296 74.7755 108.555 74.7133L108.413 78.7107C110.255 78.7765 112.252 78.7762 114.401 78.7111L114.279 74.7129ZM110.484 76.712V64.232H106.484V76.712H110.484ZM108.492 66.232L133.548 66.136L133.532 62.136L108.476 62.232L108.492 66.232ZM131.54 64.136V96.776H135.54V64.136H131.54ZM132.709 94.9566C129.927 96.2269 126.716 97.2409 123.061 97.9841L123.859 101.904C127.756 101.111 131.265 100.013 134.371 98.5954L132.709 94.9566ZM123.087 97.979C119.544 98.651 114.945 99 109.252 99V103C115.079 103 119.952 102.645 123.833 101.909L123.087 97.979ZM109.252 99C101.71 99 96.0289 97.9882 92.0556 96.1184L90.3524 99.7376C95.083 101.964 101.434 103 109.252 103V99ZM92.0772 96.1287C88.1901 94.2423 85.4655 91.2723 83.852 87.1231L80.124 88.5729C82.0944 93.6397 85.5138 97.3897 90.3308 99.7273L92.0772 96.1287ZM83.8553 87.1318C82.1855 82.7783 81.3 76.8426 81.3 69.224H77.3C77.3 77.0934 78.2064 83.5737 80.1206 88.5642L83.8553 87.1318ZM81.3 69.224C81.3 63.0812 81.9921 58.173 83.3001 54.4274L79.5238 53.1086C78.0158 57.4269 77.3 62.8228 77.3 69.224H81.3ZM83.2907 54.4539C84.6641 50.6918 86.5855 47.9248 88.9884 46.0248L86.5075 42.8872C83.4064 45.3392 81.1038 48.7802 79.5332 53.0821L83.2907 54.4539ZM88.993 46.0212C91.5302 44.003 94.6549 42.5845 98.4241 41.8067L97.6158 37.8893C93.321 38.7755 89.5977 40.429 86.5029 42.8908L88.993 46.0212ZM98.4538 41.8004C102.313 40.9428 106.771 40.504 111.844 40.504V36.504C106.549 36.504 101.791 36.9612 97.5861 37.8956L98.4538 41.8004ZM111.844 40.504C114.86 40.504 117.877 40.6297 120.894 40.8811L121.226 36.8949C118.099 36.6343 114.972 36.504 111.844 36.504V40.504ZM120.897 40.8814C123.937 41.1296 126.947 41.5949 129.925 42.2775L130.819 38.3785C127.653 37.6531 124.454 37.1584 121.223 36.8946L120.897 40.8814ZM128.372 40.328V53H132.372V40.328H128.372ZM129.263 51.3359L128.975 51.5279L131.193 54.8561L131.481 54.6641L129.263 51.3359ZM130.547 51.2464C127.771 50.5854 124.992 50.122 122.21 49.857L121.83 53.839C124.424 54.086 127.021 54.5186 129.621 55.1376L130.547 51.2464ZM122.214 49.8574C119.524 49.595 116.804 49.464 114.052 49.464V53.464C116.676 53.464 119.268 53.589 121.826 53.8385L122.214 49.8574ZM114.052 49.464C110.012 49.464 106.398 49.8938 103.236 50.7874L104.324 54.6366C107.05 53.8662 110.284 53.464 114.052 53.464V49.464ZM103.265 50.7795C99.9052 51.6754 97.2472 53.61 95.3762 56.5287L98.7437 58.6873C100.073 56.614 101.895 55.2846 104.295 54.6445L103.265 50.7795ZM95.3762 56.5287C93.4649 59.5104 92.66 63.8503 92.66 69.224H96.66C96.66 64.1017 97.4551 60.6976 98.7437 58.6873L95.3762 56.5287ZM92.66 69.224C92.66 74.4736 93.0765 78.6735 93.9935 81.7068L97.8224 80.5492C97.0754 78.0785 96.66 74.3424 96.66 69.224H92.66ZM94.0106 81.7605C95.0667 84.9289 97.0651 87.2582 100.01 88.5317L101.598 84.8603C99.8069 84.0858 98.5412 82.7031 97.8053 80.4955L94.0106 81.7605ZM100.07 88.5563C102.845 89.6519 106.594 90.136 111.172 90.136V86.136C106.79 86.136 103.627 85.6601 101.538 84.8357L100.07 88.5563ZM111.172 90.136C111.173 90.136 111.174 90.136 111.175 90.136C111.176 90.136 111.178 90.136 111.179 90.136C111.18 90.136 111.181 90.136 111.182 90.136C111.183 90.136 111.184 90.136 111.186 90.136C111.187 90.136 111.188 90.136 111.189 90.136C111.19 90.136 111.191 90.136 111.192 90.136C111.193 90.136 111.195 90.136 111.196 90.136C111.197 90.136 111.198 90.136 111.199 90.136C111.2 90.136 111.201 90.136 111.203 90.136C111.204 90.136 111.205 90.136 111.206 90.136C111.207 90.136 111.208 90.136 111.21 90.136C111.211 90.136 111.212 90.136 111.213 90.136C111.214 90.136 111.215 90.136 111.216 90.136C111.218 90.136 111.219 90.136 111.22 90.136C111.221 90.136 111.222 90.136 111.223 90.136C111.225 90.136 111.226 90.136 111.227 90.136C111.228 90.136 111.229 90.136 111.23 90.136C111.232 90.136 111.233 90.136 111.234 90.136C111.235 90.136 111.236 90.136 111.237 90.136C111.239 90.136 111.24 90.136 111.241 90.136C111.242 90.136 111.243 90.136 111.244 90.136C111.246 90.136 111.247 90.136 111.248 90.136C111.249 90.136 111.25 90.136 111.252 90.136C111.253 90.136 111.254 90.136 111.255 90.136C111.256 90.136 111.257 90.136 111.259 90.136C111.26 90.136 111.261 90.136 111.262 90.136C111.263 90.136 111.265 90.136 111.266 90.136C111.267 90.136 111.268 90.136 111.269 90.136C111.271 90.136 111.272 90.136 111.273 90.136C111.274 90.136 111.275 90.136 111.277 90.136C111.278 90.136 111.279 90.136 111.28 90.136C111.281 90.136 111.283 90.136 111.284 90.136C111.285 90.136 111.286 90.136 111.287 90.136C111.289 90.136 111.29 90.136 111.291 90.136C111.292 90.136 111.293 90.136 111.295 90.136C111.296 90.136 111.297 90.136 111.298 90.136C111.299 90.136 111.301 90.136 111.302 90.136C111.303 90.136 111.304 90.136 111.306 90.136C111.307 90.136 111.308 90.136 111.309 90.136C111.31 90.136 111.312 90.136 111.313 90.136C111.314 90.136 111.315 90.136 111.316 90.136C111.318 90.136 111.319 90.136 111.32 90.136C111.321 90.136 111.323 90.136 111.324 90.136C111.325 90.136 111.326 90.136 111.328 90.136C111.329 90.136 111.33 90.136 111.331 90.136C111.332 90.136 111.334 90.136 111.335 90.136C111.336 90.136 111.337 90.136 111.339 90.136C111.34 90.136 111.341 90.136 111.342 90.136C111.344 90.136 111.345 90.136 111.346 90.136C111.347 90.136 111.349 90.136 111.35 90.136C111.351 90.136 111.352 90.136 111.354 90.136C111.355 90.136 111.356 90.136 111.357 90.136C111.359 90.136 111.36 90.136 111.361 90.136C111.362 90.136 111.364 90.136 111.365 90.136C111.366 90.136 111.367 90.136 111.369 90.136C111.37 90.136 111.371 90.136 111.372 90.136C111.374 90.136 111.375 90.136 111.376 90.136C111.377 90.136 111.379 90.136 111.38 90.136C111.381 90.136 111.383 90.136 111.384 90.136C111.385 90.136 111.386 90.136 111.388 90.136C111.389 90.136 111.39 90.136 111.391 90.136C111.393 90.136 111.394 90.136 111.395 90.136C111.397 90.136 111.398 90.136 111.399 90.136C111.4 90.136 111.402 90.136 111.403 90.136C111.404 90.136 111.406 90.136 111.407 90.136C111.408 90.136 111.409 90.136 111.411 90.136C111.412 90.136 111.413 90.136 111.415 90.136C111.416 90.136 111.417 90.136 111.418 90.136C111.42 90.136 111.421 90.136 111.422 90.136C111.424 90.136 111.425 90.136 111.426 90.136C111.427 90.136 111.429 90.136 111.43 90.136C111.431 90.136 111.433 90.136 111.434 90.136C111.435 90.136 111.437 90.136 111.438 90.136C111.439 90.136 111.44 90.136 111.442 90.136C111.443 90.136 111.444 90.136 111.446 90.136C111.447 90.136 111.448 90.136 111.45 90.136C111.451 90.136 111.452 90.136 111.454 90.136C111.455 90.136 111.456 90.136 111.457 90.136C111.459 90.136 111.46 90.136 111.461 90.136C111.463 90.136 111.464 90.136 111.465 90.136C111.467 90.136 111.468 90.136 111.469 90.136C111.471 90.136 111.472 90.136 111.473 90.136C111.475 90.136 111.476 90.136 111.477 90.136C111.479 90.136 111.48 90.136 111.481 90.136C111.483 90.136 111.484 90.136 111.485 90.136C111.487 90.136 111.488 90.136 111.489 90.136C111.491 90.136 111.492 90.136 111.493 90.136C111.495 90.136 111.496 90.136 111.497 90.136C111.499 90.136 111.5 90.136 111.501 90.136C111.503 90.136 111.504 90.136 111.505 90.136C111.507 90.136 111.508 90.136 111.509 90.136C111.511 90.136 111.512 90.136 111.513 90.136C111.515 90.136 111.516 90.136 111.518 90.136C111.519 90.136 111.52 90.136 111.522 90.136C111.523 90.136 111.524 90.136 111.526 90.136C111.527 90.136 111.528 90.136 111.53 90.136C111.531 90.136 111.532 90.136 111.534 90.136C111.535 90.136 111.537 90.136 111.538 90.136C111.539 90.136 111.541 90.136 111.542 90.136C111.543 90.136 111.545 90.136 111.546 90.136C111.547 90.136 111.549 90.136 111.55 90.136C111.552 90.136 111.553 90.136 111.554 90.136C111.556 90.136 111.557 90.136 111.558 90.136C111.56 90.136 111.561 90.136 111.563 90.136C111.564 90.136 111.565 90.136 111.567 90.136C111.568 90.136 111.569 90.136 111.571 90.136C111.572 90.136 111.574 90.136 111.575 90.136C111.576 90.136 111.578 90.136 111.579 90.136C111.581 90.136 111.582 90.136 111.583 90.136C111.585 90.136 111.586 90.136 111.588 90.136C111.589 90.136 111.59 90.136 111.592 90.136C111.593 90.136 111.595 90.136 111.596 90.136C111.597 90.136 111.599 90.136 111.6 90.136C111.601 90.136 111.603 90.136 111.604 90.136C111.606 90.136 111.607 90.136 111.609 90.136C111.61 90.136 111.611 90.136 111.613 90.136C111.614 90.136 111.616 90.136 111.617 90.136C111.618 90.136 111.62 90.136 111.621 90.136C111.623 90.136 111.624 90.136 111.625 90.136C111.627 90.136 111.628 90.136 111.63 90.136C111.631 90.136 111.633 90.136 111.634 90.136C111.635 90.136 111.637 90.136 111.638 90.136C111.64 90.136 111.641 90.136 111.642 90.136C111.644 90.136 111.645 90.136 111.647 90.136C111.648 90.136 111.65 90.136 111.651 90.136C111.652 90.136 111.654 90.136 111.655 90.136C111.657 90.136 111.658 90.136 111.66 90.136C111.661 90.136 111.663 90.136 111.664 90.136C111.665 90.136 111.667 90.136 111.668 90.136C111.67 90.136 111.671 90.136 111.673 90.136C111.674 90.136 111.675 90.136 111.677 90.136C111.678 90.136 111.68 90.136 111.681 90.136C111.683 90.136 111.684 90.136 111.686 90.136C111.687 90.136 111.689 90.136 111.69 90.136C111.691 90.136 111.693 90.136 111.694 90.136C111.696 90.136 111.697 90.136 111.699 90.136C111.7 90.136 111.702 90.136 111.703 90.136C111.705 90.136 111.706 90.136 111.707 90.136C111.709 90.136 111.71 90.136 111.712 90.136C111.713 90.136 111.715 90.136 111.716 90.136C111.718 90.136 111.719 90.136 111.721 90.136C111.722 90.136 111.724 90.136 111.725 90.136C111.727 90.136 111.728 90.136 111.729 90.136C111.731 90.136 111.732 90.136 111.734 90.136C111.735 90.136 111.737 90.136 111.738 90.136C111.74 90.136 111.741 90.136 111.743 90.136C111.744 90.136 111.746 90.136 111.747 90.136C111.749 90.136 111.75 90.136 111.752 90.136C111.753 90.136 111.755 90.136 111.756 90.136C111.758 90.136 111.759 90.136 111.761 90.136C111.762 90.136 111.764 90.136 111.765 90.136C111.767 90.136 111.768 90.136 111.77 90.136C111.771 90.136 111.773 90.136 111.774 90.136C111.776 90.136 111.777 90.136 111.779 90.136C111.78 90.136 111.782 90.136 111.783 90.136C111.785 90.136 111.786 90.136 111.788 90.136C111.789 90.136 111.791 90.136 111.792 90.136C111.794 90.136 111.795 90.136 111.797 90.136C111.798 90.136 111.8 90.136 111.801 90.136C111.803 90.136 111.804 90.136 111.806 90.136C111.807 90.136 111.809 90.136 111.81 90.136C111.812 90.136 111.813 90.136 111.815 90.136C111.816 90.136 111.818 90.136 111.819 90.136C111.821 90.136 111.822 90.136 111.824 90.136C111.825 90.136 111.827 90.136 111.829 90.136C111.83 90.136 111.832 90.136 111.833 90.136C111.835 90.136 111.836 90.136 111.838 90.136C111.839 90.136 111.841 90.136 111.842 90.136C111.844 90.136 111.845 90.136 111.847 90.136C111.848 90.136 111.85 90.136 111.852 90.136C111.853 90.136 111.855 90.136 111.856 90.136C111.858 90.136 111.859 90.136 111.861 90.136C111.862 90.136 111.864 90.136 111.865 90.136C111.867 90.136 111.869 90.136 111.87 90.136C111.872 90.136 111.873 90.136 111.875 90.136C111.876 90.136 111.878 90.136 111.879 90.136C111.881 90.136 111.883 90.136 111.884 90.136C111.886 90.136 111.887 90.136 111.889 90.136C111.89 90.136 111.892 90.136 111.893 90.136C111.895 90.136 111.897 90.136 111.898 90.136C111.9 90.136 111.901 90.136 111.903 90.136C111.904 90.136 111.906 90.136 111.908 90.136C111.909 90.136 111.911 90.136 111.912 90.136C111.914 90.136 111.915 90.136 111.917 90.136C111.919 90.136 111.92 90.136 111.922 90.136C111.923 90.136 111.925 90.136 111.926 90.136C111.928 90.136 111.93 90.136 111.931 90.136C111.933 90.136 111.934 90.136 111.936 90.136C111.937 90.136 111.939 90.136 111.941 90.136C111.942 90.136 111.944 90.136 111.945 90.136C111.947 90.136 111.949 90.136 111.95 90.136C111.952 90.136 111.953 90.136 111.955 90.136C111.957 90.136 111.958 90.136 111.96 90.136C111.961 90.136 111.963 90.136 111.965 90.136C111.966 90.136 111.968 90.136 111.969 90.136C111.971 90.136 111.973 90.136 111.974 90.136C111.976 90.136 111.977 90.136 111.979 90.136C111.981 90.136 111.982 90.136 111.984 90.136C111.985 90.136 111.987 90.136 111.989 90.136C111.99 90.136 111.992 90.136 111.993 90.136C111.995 90.136 111.997 90.136 111.998 90.136C112 90.136 112.002 90.136 112.003 90.136C112.005 90.136 112.006 90.136 112.008 90.136C112.01 90.136 112.011 90.136 112.013 90.136C112.014 90.136 112.016 90.136 112.018 90.136C112.019 90.136 112.021 90.136 112.023 90.136C112.024 90.136 112.026 90.136 112.028 90.136C112.029 90.136 112.031 90.136 112.032 90.136C112.034 90.136 112.036 90.136 112.037 90.136C112.039 90.136 112.041 90.136 112.042 90.136C112.044 90.136 112.045 90.136 112.047 90.136C112.049 90.136 112.05 90.136 112.052 90.136C112.054 90.136 112.055 90.136 112.057 90.136C112.059 90.136 112.06 90.136 112.062 90.136C112.064 90.136 112.065 90.136 112.067 90.136C112.069 90.136 112.07 90.136 112.072 90.136C112.073 90.136 112.075 90.136 112.077 90.136C112.078 90.136 112.08 90.136 112.082 90.136C112.083 90.136 112.085 90.136 112.087 90.136C112.088 90.136 112.09 90.136 112.092 90.136C112.093 90.136 112.095 90.136 112.097 90.136C112.098 90.136 112.1 90.136 112.102 90.136C112.103 90.136 112.105 90.136 112.107 90.136C112.108 90.136 112.11 90.136 112.112 90.136C112.113 90.136 112.115 90.136 112.117 90.136C112.118 90.136 112.12 90.136 112.122 90.136C112.123 90.136 112.125 90.136 112.127 90.136C112.128 90.136 112.13 90.136 112.132 90.136C112.134 90.136 112.135 90.136 112.137 90.136C112.139 90.136 112.14 90.136 112.142 90.136C112.144 90.136 112.145 90.136 112.147 90.136C112.149 90.136 112.15 90.136 112.152 90.136C112.154 90.136 112.155 90.136 112.157 90.136C112.159 90.136 112.161 90.136 112.162 90.136C112.164 90.136 112.166 90.136 112.167 90.136C112.169 90.136 112.171 90.136 112.172 90.136C112.174 90.136 112.176 90.136 112.178 90.136C112.179 90.136 112.181 90.136 112.183 90.136C112.184 90.136 112.186 90.136 112.188 90.136C112.189 90.136 112.191 90.136 112.193 90.136C112.195 90.136 112.196 90.136 112.198 90.136C112.2 90.136 112.201 90.136 112.203 90.136C112.205 90.136 112.207 90.136 112.208 90.136C112.21 90.136 112.212 90.136 112.213 90.136C112.215 90.136 112.217 90.136 112.219 90.136C112.22 90.136 112.222 90.136 112.224 90.136C112.226 90.136 112.227 90.136 112.229 90.136C112.231 90.136 112.232 90.136 112.234 90.136C112.236 90.136 112.238 90.136 112.239 90.136C112.241 90.136 112.243 90.136 112.245 90.136C112.246 90.136 112.248 90.136 112.25 90.136C112.252 90.136 112.253 90.136 112.255 90.136C112.257 90.136 112.259 90.136 112.26 90.136C112.262 90.136 112.264 90.136 112.265 90.136C112.267 90.136 112.269 90.136 112.271 90.136C112.272 90.136 112.274 90.136 112.276 90.136C112.278 90.136 112.279 90.136 112.281 90.136C112.283 90.136 112.285 90.136 112.286 90.136C112.288 90.136 112.29 90.136 112.292 90.136C112.294 90.136 112.295 90.136 112.297 90.136C112.299 90.136 112.301 90.136 112.302 90.136C112.304 90.136 112.306 90.136 112.308 90.136C112.309 90.136 112.311 90.136 112.313 90.136C112.315 90.136 112.316 90.136 112.318 90.136C112.32 90.136 112.322 90.136 112.324 90.136C112.325 90.136 112.327 90.136 112.329 90.136C112.331 90.136 112.332 90.136 112.334 90.136C112.336 90.136 112.338 90.136 112.339 90.136C112.341 90.136 112.343 90.136 112.345 90.136C112.347 90.136 112.348 90.136 112.35 90.136C112.352 90.136 112.354 90.136 112.356 90.136C112.357 90.136 112.359 90.136 112.361 90.136C112.363 90.136 112.364 90.136 112.366 90.136C112.368 90.136 112.37 90.136 112.372 90.136C112.373 90.136 112.375 90.136 112.377 90.136C112.379 90.136 112.381 90.136 112.382 90.136C112.384 90.136 112.386 90.136 112.388 90.136C112.39 90.136 112.391 90.136 112.393 90.136C112.395 90.136 112.397 90.136 112.399 90.136C112.4 90.136 112.402 90.136 112.404 90.136C112.406 90.136 112.408 90.136 112.41 90.136C112.411 90.136 112.413 90.136 112.415 90.136C112.417 90.136 112.419 90.136 112.42 90.136C112.422 90.136 112.424 90.136 112.426 90.136C112.428 90.136 112.429 90.136 112.431 90.136C112.433 90.136 112.435 90.136 112.437 90.136C112.439 90.136 112.44 90.136 112.442 90.136C112.444 90.136 112.446 90.136 112.448 90.136C112.45 90.136 112.451 90.136 112.453 90.136C112.455 90.136 112.457 90.136 112.459 90.136C112.461 90.136 112.462 90.136 112.464 90.136C112.466 90.136 112.468 90.136 112.47 90.136C112.472 90.136 112.473 90.136 112.475 90.136C112.477 90.136 112.479 90.136 112.481 90.136C112.483 90.136 112.484 90.136 112.486 90.136C112.488 90.136 112.49 90.136 112.492 90.136C112.494 90.136 112.496 90.136 112.497 90.136C112.499 90.136 112.501 90.136 112.503 90.136C112.505 90.136 112.507 90.136 112.508 90.136C112.51 90.136 112.512 90.136 112.514 90.136C112.516 90.136 112.518 90.136 112.52 90.136C112.521 90.136 112.523 90.136 112.525 90.136C112.527 90.136 112.529 90.136 112.531 90.136C112.533 90.136 112.535 90.136 112.536 90.136C112.538 90.136 112.54 90.136 112.542 90.136C112.544 90.136 112.546 90.136 112.548 90.136C112.549 90.136 112.551 90.136 112.553 90.136C112.555 90.136 112.557 90.136 112.559 90.136C112.561 90.136 112.563 90.136 112.564 90.136C112.566 90.136 112.568 90.136 112.57 90.136C112.572 90.136 112.574 90.136 112.576 90.136C112.578 90.136 112.58 90.136 112.581 90.136C112.583 90.136 112.585 90.136 112.587 90.136C112.589 90.136 112.591 90.136 112.593 90.136C112.595 90.136 112.597 90.136 112.598 90.136C112.6 90.136 112.602 90.136 112.604 90.136C112.606 90.136 112.608 90.136 112.61 90.136C112.612 90.136 112.614 90.136 112.616 90.136C112.617 90.136 112.619 90.136 112.621 90.136C112.623 90.136 112.625 90.136 112.627 90.136C112.629 90.136 112.631 90.136 112.633 90.136C112.635 90.136 112.637 90.136 112.638 90.136C112.64 90.136 112.642 90.136 112.644 90.136C112.646 90.136 112.648 90.136 112.65 90.136C112.652 90.136 112.654 90.136 112.656 90.136C112.658 90.136 112.659 90.136 112.661 90.136C112.663 90.136 112.665 90.136 112.667 90.136C112.669 90.136 112.671 90.136 112.673 90.136C112.675 90.136 112.677 90.136 112.679 90.136C112.681 90.136 112.683 90.136 112.685 90.136C112.686 90.136 112.688 90.136 112.69 90.136C112.692 90.136 112.694 90.136 112.696 90.136C112.698 90.136 112.7 90.136 112.702 90.136C112.704 90.136 112.706 90.136 112.708 90.136C112.71 90.136 112.712 90.136 112.714 90.136C112.716 90.136 112.717 90.136 112.719 90.136C112.721 90.136 112.723 90.136 112.725 90.136C112.727 90.136 112.729 90.136 112.731 90.136C112.733 90.136 112.735 90.136 112.737 90.136C112.739 90.136 112.741 90.136 112.743 90.136C112.745 90.136 112.747 90.136 112.749 90.136C112.751 90.136 112.753 90.136 112.755 90.136C112.757 90.136 112.758 90.136 112.76 90.136C112.762 90.136 112.764 90.136 112.766 90.136C112.768 90.136 112.77 90.136 112.772 90.136C112.774 90.136 112.776 90.136 112.778 90.136C112.78 90.136 112.782 90.136 112.784 90.136C112.786 90.136 112.788 90.136 112.79 90.136C112.792 90.136 112.794 90.136 112.796 90.136C112.798 90.136 112.8 90.136 112.802 90.136C112.804 90.136 112.806 90.136 112.808 90.136C112.81 90.136 112.812 90.136 112.814 90.136C112.816 90.136 112.818 90.136 112.82 90.136C112.822 90.136 112.824 90.136 112.826 90.136C112.828 90.136 112.83 90.136 112.832 90.136C112.834 90.136 112.836 90.136 112.838 90.136C112.84 90.136 112.842 90.136 112.844 90.136C112.846 90.136 112.848 90.136 112.85 90.136C112.852 90.136 112.854 90.136 112.856 90.136C112.858 90.136 112.86 90.136 112.862 90.136C112.864 90.136 112.866 90.136 112.868 90.136C112.87 90.136 112.872 90.136 112.874 90.136C112.876 90.136 112.878 90.136 112.88 90.136C112.882 90.136 112.884 90.136 112.886 90.136C112.888 90.136 112.89 90.136 112.892 90.136C112.894 90.136 112.896 90.136 112.898 90.136C112.9 90.136 112.902 90.136 112.904 90.136C112.906 90.136 112.908 90.136 112.91 90.136C112.912 90.136 112.914 90.136 112.916 90.136C112.918 90.136 112.92 90.136 112.922 90.136C112.924 90.136 112.926 90.136 112.928 90.136C112.93 90.136 112.932 90.136 112.934 90.136C112.936 90.136 112.938 90.136 112.94 90.136C112.942 90.136 112.944 90.136 112.946 90.136C112.948 90.136 112.951 90.136 112.953 90.136C112.955 90.136 112.957 90.136 112.959 90.136C112.961 90.136 112.963 90.136 112.965 90.136C112.967 90.136 112.969 90.136 112.971 90.136C112.973 90.136 112.975 90.136 112.977 90.136C112.979 90.136 112.981 90.136 112.983 90.136C112.985 90.136 112.987 90.136 112.989 90.136C112.991 90.136 112.994 90.136 112.996 90.136C112.998 90.136 113 90.136 113.002 90.136C113.004 90.136 113.006 90.136 113.008 90.136C113.01 90.136 113.012 90.136 113.014 90.136C113.016 90.136 113.018 90.136 113.02 90.136C113.022 90.136 113.024 90.136 113.027 90.136C113.029 90.136 113.031 90.136 113.033 90.136C113.035 90.136 113.037 90.136 113.039 90.136C113.041 90.136 113.043 90.136 113.045 90.136C113.047 90.136 113.049 90.136 113.051 90.136C113.054 90.136 113.056 90.136 113.058 90.136C113.06 90.136 113.062 90.136 113.064 90.136C113.066 90.136 113.068 90.136 113.07 90.136C113.072 90.136 113.074 90.136 113.076 90.136C113.079 90.136 113.081 90.136 113.083 90.136C113.085 90.136 113.087 90.136 113.089 90.136C113.091 90.136 113.093 90.136 113.095 90.136C113.097 90.136 113.099 90.136 113.102 90.136C113.104 90.136 113.106 90.136 113.108 90.136C113.11 90.136 113.112 90.136 113.114 90.136C113.116 90.136 113.118 90.136 113.121 90.136C113.123 90.136 113.125 90.136 113.127 90.136C113.129 90.136 113.131 90.136 113.133 90.136C113.135 90.136 113.137 90.136 113.14 90.136C113.142 90.136 113.144 90.136 113.146 90.136C113.148 90.136 113.15 90.136 113.152 90.136C113.154 90.136 113.156 90.136 113.159 90.136C113.161 90.136 113.163 90.136 113.165 90.136C113.167 90.136 113.169 90.136 113.171 90.136C113.173 90.136 113.176 90.136 113.178 90.136C113.18 90.136 113.182 90.136 113.184 90.136C113.186 90.136 113.188 90.136 113.19 90.136C113.193 90.136 113.195 90.136 113.197 90.136C113.199 90.136 113.201 90.136 113.203 90.136C113.205 90.136 113.208 90.136 113.21 90.136C113.212 90.136 113.214 90.136 113.216 90.136C113.218 90.136 113.22 90.136 113.223 90.136C113.225 90.136 113.227 90.136 113.229 90.136C113.231 90.136 113.233 90.136 113.235 90.136C113.238 90.136 113.24 90.136 113.242 90.136C113.244 90.136 113.246 90.136 113.248 90.136C113.251 90.136 113.253 90.136 113.255 90.136C113.257 90.136 113.259 90.136 113.261 90.136C113.263 90.136 113.266 90.136 113.268 90.136C113.27 90.136 113.272 90.136 113.274 90.136C113.276 90.136 113.279 90.136 113.281 90.136C113.283 90.136 113.285 90.136 113.287 90.136C113.289 90.136 113.292 90.136 113.294 90.136C113.296 90.136 113.298 90.136 113.3 90.136C113.303 90.136 113.305 90.136 113.307 90.136C113.309 90.136 113.311 90.136 113.313 90.136C113.316 90.136 113.318 90.136 113.32 90.136C113.322 90.136 113.324 90.136 113.326 90.136C113.329 90.136 113.331 90.136 113.333 90.136C113.335 90.136 113.337 90.136 113.34 90.136C113.342 90.136 113.344 90.136 113.346 90.136C113.348 90.136 113.351 90.136 113.353 90.136C113.355 90.136 113.357 90.136 113.359 90.136C113.362 90.136 113.364 90.136 113.366 90.136C113.368 90.136 113.37 90.136 113.373 90.136C113.375 90.136 113.377 90.136 113.379 90.136C113.381 90.136 113.384 90.136 113.386 90.136C113.388 90.136 113.39 90.136 113.392 90.136C113.395 90.136 113.397 90.136 113.399 90.136C113.401 90.136 113.403 90.136 113.406 90.136C113.408 90.136 113.41 90.136 113.412 90.136C113.415 90.136 113.417 90.136 113.419 90.136C113.421 90.136 113.423 90.136 113.426 90.136C113.428 90.136 113.43 90.136 113.432 90.136C113.435 90.136 113.437 90.136 113.439 90.136C113.441 90.136 113.443 90.136 113.446 90.136C113.448 90.136 113.45 90.136 113.452 90.136C113.455 90.136 113.457 90.136 113.459 90.136C113.461 90.136 113.463 90.136 113.466 90.136C113.468 90.136 113.47 90.136 113.472 90.136C113.475 90.136 113.477 90.136 113.479 90.136C113.481 90.136 113.484 90.136 113.486 90.136C113.488 90.136 113.49 90.136 113.493 90.136C113.495 90.136 113.497 90.136 113.499 90.136C113.502 90.136 113.504 90.136 113.506 90.136C113.508 90.136 113.511 90.136 113.513 90.136C113.515 90.136 113.517 90.136 113.52 90.136C113.522 90.136 113.524 90.136 113.526 90.136C113.529 90.136 113.531 90.136 113.533 90.136C113.535 90.136 113.538 90.136 113.54 90.136C113.542 90.136 113.544 90.136 113.547 90.136C113.549 90.136 113.551 90.136 113.554 90.136C113.556 90.136 113.558 90.136 113.56 90.136C113.563 90.136 113.565 90.136 113.567 90.136C113.569 90.136 113.572 90.136 113.574 90.136C113.576 90.136 113.579 90.136 113.581 90.136C113.583 90.136 113.585 90.136 113.588 90.136C113.59 90.136 113.592 90.136 113.595 90.136C113.597 90.136 113.599 90.136 113.601 90.136C113.604 90.136 113.606 90.136 113.608 90.136C113.61 90.136 113.613 90.136 113.615 90.136C113.617 90.136 113.62 90.136 113.622 90.136C113.624 90.136 113.627 90.136 113.629 90.136C113.631 90.136 113.633 90.136 113.636 90.136C113.638 90.136 113.64 90.136 113.643 90.136C113.645 90.136 113.647 90.136 113.65 90.136C113.652 90.136 113.654 90.136 113.656 90.136C113.659 90.136 113.661 90.136 113.663 90.136C113.666 90.136 113.668 90.136 113.67 90.136C113.673 90.136 113.675 90.136 113.677 90.136C113.68 90.136 113.682 90.136 113.684 90.136C113.686 90.136 113.689 90.136 113.691 90.136C113.693 90.136 113.696 90.136 113.698 90.136C113.7 90.136 113.703 90.136 113.705 90.136C113.707 90.136 113.71 90.136 113.712 90.136C113.714 90.136 113.717 90.136 113.719 90.136C113.721 90.136 113.724 90.136 113.726 90.136C113.728 90.136 113.731 90.136 113.733 90.136C113.735 90.136 113.738 90.136 113.74 90.136C113.742 90.136 113.745 90.136 113.747 90.136C113.749 90.136 113.752 90.136 113.754 90.136C113.756 90.136 113.759 90.136 113.761 90.136C113.763 90.136 113.766 90.136 113.768 90.136C113.77 90.136 113.773 90.136 113.775 90.136C113.777 90.136 113.78 90.136 113.782 90.136C113.784 90.136 113.787 90.136 113.789 90.136C113.791 90.136 113.794 90.136 113.796 90.136C113.798 90.136 113.801 90.136 113.803 90.136C113.806 90.136 113.808 90.136 113.81 90.136C113.813 90.136 113.815 90.136 113.817 90.136C113.82 90.136 113.822 90.136 113.824 90.136C113.827 90.136 113.829 90.136 113.832 90.136C113.834 90.136 113.836 90.136 113.839 90.136C113.841 90.136 113.843 90.136 113.846 90.136C113.848 90.136 113.85 90.136 113.853 90.136C113.855 90.136 113.858 90.136 113.86 90.136V86.136C113.858 86.136 113.855 86.136 113.853 86.136C113.85 86.136 113.848 86.136 113.846 86.136C113.843 86.136 113.841 86.136 113.839 86.136C113.836 86.136 113.834 86.136 113.832 86.136C113.829 86.136 113.827 86.136 113.824 86.136C113.822 86.136 113.82 86.136 113.817 86.136C113.815 86.136 113.813 86.136 113.81 86.136C113.808 86.136 113.806 86.136 113.803 86.136C113.801 86.136 113.798 86.136 113.796 86.136C113.794 86.136 113.791 86.136 113.789 86.136C113.787 86.136 113.784 86.136 113.782 86.136C113.78 86.136 113.777 86.136 113.775 86.136C113.773 86.136 113.77 86.136 113.768 86.136C113.766 86.136 113.763 86.136 113.761 86.136C113.759 86.136 113.756 86.136 113.754 86.136C113.752 86.136 113.749 86.136 113.747 86.136C113.745 86.136 113.742 86.136 113.74 86.136C113.738 86.136 113.735 86.136 113.733 86.136C113.731 86.136 113.728 86.136 113.726 86.136C113.724 86.136 113.721 86.136 113.719 86.136C113.717 86.136 113.714 86.136 113.712 86.136C113.71 86.136 113.707 86.136 113.705 86.136C113.703 86.136 113.7 86.136 113.698 86.136C113.696 86.136 113.693 86.136 113.691 86.136C113.689 86.136 113.686 86.136 113.684 86.136C113.682 86.136 113.68 86.136 113.677 86.136C113.675 86.136 113.673 86.136 113.67 86.136C113.668 86.136 113.666 86.136 113.663 86.136C113.661 86.136 113.659 86.136 113.656 86.136C113.654 86.136 113.652 86.136 113.65 86.136C113.647 86.136 113.645 86.136 113.643 86.136C113.64 86.136 113.638 86.136 113.636 86.136C113.633 86.136 113.631 86.136 113.629 86.136C113.627 86.136 113.624 86.136 113.622 86.136C113.62 86.136 113.617 86.136 113.615 86.136C113.613 86.136 113.61 86.136 113.608 86.136C113.606 86.136 113.604 86.136 113.601 86.136C113.599 86.136 113.597 86.136 113.595 86.136C113.592 86.136 113.59 86.136 113.588 86.136C113.585 86.136 113.583 86.136 113.581 86.136C113.579 86.136 113.576 86.136 113.574 86.136C113.572 86.136 113.569 86.136 113.567 86.136C113.565 86.136 113.563 86.136 113.56 86.136C113.558 86.136 113.556 86.136 113.554 86.136C113.551 86.136 113.549 86.136 113.547 86.136C113.544 86.136 113.542 86.136 113.54 86.136C113.538 86.136 113.535 86.136 113.533 86.136C113.531 86.136 113.529 86.136 113.526 86.136C113.524 86.136 113.522 86.136 113.52 86.136C113.517 86.136 113.515 86.136 113.513 86.136C113.511 86.136 113.508 86.136 113.506 86.136C113.504 86.136 113.502 86.136 113.499 86.136C113.497 86.136 113.495 86.136 113.493 86.136C113.49 86.136 113.488 86.136 113.486 86.136C113.484 86.136 113.481 86.136 113.479 86.136C113.477 86.136 113.475 86.136 113.472 86.136C113.47 86.136 113.468 86.136 113.466 86.136C113.463 86.136 113.461 86.136 113.459 86.136C113.457 86.136 113.455 86.136 113.452 86.136C113.45 86.136 113.448 86.136 113.446 86.136C113.443 86.136 113.441 86.136 113.439 86.136C113.437 86.136 113.435 86.136 113.432 86.136C113.43 86.136 113.428 86.136 113.426 86.136C113.423 86.136 113.421 86.136 113.419 86.136C113.417 86.136 113.415 86.136 113.412 86.136C113.41 86.136 113.408 86.136 113.406 86.136C113.403 86.136 113.401 86.136 113.399 86.136C113.397 86.136 113.395 86.136 113.392 86.136C113.39 86.136 113.388 86.136 113.386 86.136C113.384 86.136 113.381 86.136 113.379 86.136C113.377 86.136 113.375 86.136 113.373 86.136C113.37 86.136 113.368 86.136 113.366 86.136C113.364 86.136 113.362 86.136 113.359 86.136C113.357 86.136 113.355 86.136 113.353 86.136C113.351 86.136 113.348 86.136 113.346 86.136C113.344 86.136 113.342 86.136 113.34 86.136C113.337 86.136 113.335 86.136 113.333 86.136C113.331 86.136 113.329 86.136 113.326 86.136C113.324 86.136 113.322 86.136 113.32 86.136C113.318 86.136 113.316 86.136 113.313 86.136C113.311 86.136 113.309 86.136 113.307 86.136C113.305 86.136 113.303 86.136 113.3 86.136C113.298 86.136 113.296 86.136 113.294 86.136C113.292 86.136 113.289 86.136 113.287 86.136C113.285 86.136 113.283 86.136 113.281 86.136C113.279 86.136 113.276 86.136 113.274 86.136C113.272 86.136 113.27 86.136 113.268 86.136C113.266 86.136 113.263 86.136 113.261 86.136C113.259 86.136 113.257 86.136 113.255 86.136C113.253 86.136 113.251 86.136 113.248 86.136C113.246 86.136 113.244 86.136 113.242 86.136C113.24 86.136 113.238 86.136 113.235 86.136C113.233 86.136 113.231 86.136 113.229 86.136C113.227 86.136 113.225 86.136 113.223 86.136C113.22 86.136 113.218 86.136 113.216 86.136C113.214 86.136 113.212 86.136 113.21 86.136C113.208 86.136 113.205 86.136 113.203 86.136C113.201 86.136 113.199 86.136 113.197 86.136C113.195 86.136 113.193 86.136 113.19 86.136C113.188 86.136 113.186 86.136 113.184 86.136C113.182 86.136 113.18 86.136 113.178 86.136C113.176 86.136 113.173 86.136 113.171 86.136C113.169 86.136 113.167 86.136 113.165 86.136C113.163 86.136 113.161 86.136 113.159 86.136C113.156 86.136 113.154 86.136 113.152 86.136C113.15 86.136 113.148 86.136 113.146 86.136C113.144 86.136 113.142 86.136 113.14 86.136C113.137 86.136 113.135 86.136 113.133 86.136C113.131 86.136 113.129 86.136 113.127 86.136C113.125 86.136 113.123 86.136 113.121 86.136C113.118 86.136 113.116 86.136 113.114 86.136C113.112 86.136 113.11 86.136 113.108 86.136C113.106 86.136 113.104 86.136 113.102 86.136C113.099 86.136 113.097 86.136 113.095 86.136C113.093 86.136 113.091 86.136 113.089 86.136C113.087 86.136 113.085 86.136 113.083 86.136C113.081 86.136 113.079 86.136 113.076 86.136C113.074 86.136 113.072 86.136 113.07 86.136C113.068 86.136 113.066 86.136 113.064 86.136C113.062 86.136 113.06 86.136 113.058 86.136C113.056 86.136 113.054 86.136 113.051 86.136C113.049 86.136 113.047 86.136 113.045 86.136C113.043 86.136 113.041 86.136 113.039 86.136C113.037 86.136 113.035 86.136 113.033 86.136C113.031 86.136 113.029 86.136 113.027 86.136C113.024 86.136 113.022 86.136 113.02 86.136C113.018 86.136 113.016 86.136 113.014 86.136C113.012 86.136 113.01 86.136 113.008 86.136C113.006 86.136 113.004 86.136 113.002 86.136C113 86.136 112.998 86.136 112.996 86.136C112.994 86.136 112.991 86.136 112.989 86.136C112.987 86.136 112.985 86.136 112.983 86.136C112.981 86.136 112.979 86.136 112.977 86.136C112.975 86.136 112.973 86.136 112.971 86.136C112.969 86.136 112.967 86.136 112.965 86.136C112.963 86.136 112.961 86.136 112.959 86.136C112.957 86.136 112.955 86.136 112.953 86.136C112.951 86.136 112.948 86.136 112.946 86.136C112.944 86.136 112.942 86.136 112.94 86.136C112.938 86.136 112.936 86.136 112.934 86.136C112.932 86.136 112.93 86.136 112.928 86.136C112.926 86.136 112.924 86.136 112.922 86.136C112.92 86.136 112.918 86.136 112.916 86.136C112.914 86.136 112.912 86.136 112.91 86.136C112.908 86.136 112.906 86.136 112.904 86.136C112.902 86.136 112.9 86.136 112.898 86.136C112.896 86.136 112.894 86.136 112.892 86.136C112.89 86.136 112.888 86.136 112.886 86.136C112.884 86.136 112.882 86.136 112.88 86.136C112.878 86.136 112.876 86.136 112.874 86.136C112.872 86.136 112.87 86.136 112.868 86.136C112.866 86.136 112.864 86.136 112.862 86.136C112.86 86.136 112.858 86.136 112.856 86.136C112.854 86.136 112.852 86.136 112.85 86.136C112.848 86.136 112.846 86.136 112.844 86.136C112.842 86.136 112.84 86.136 112.838 86.136C112.836 86.136 112.834 86.136 112.832 86.136C112.83 86.136 112.828 86.136 112.826 86.136C112.824 86.136 112.822 86.136 112.82 86.136C112.818 86.136 112.816 86.136 112.814 86.136C112.812 86.136 112.81 86.136 112.808 86.136C112.806 86.136 112.804 86.136 112.802 86.136C112.8 86.136 112.798 86.136 112.796 86.136C112.794 86.136 112.792 86.136 112.79 86.136C112.788 86.136 112.786 86.136 112.784 86.136C112.782 86.136 112.78 86.136 112.778 86.136C112.776 86.136 112.774 86.136 112.772 86.136C112.77 86.136 112.768 86.136 112.766 86.136C112.764 86.136 112.762 86.136 112.76 86.136C112.758 86.136 112.757 86.136 112.755 86.136C112.753 86.136 112.751 86.136 112.749 86.136C112.747 86.136 112.745 86.136 112.743 86.136C112.741 86.136 112.739 86.136 112.737 86.136C112.735 86.136 112.733 86.136 112.731 86.136C112.729 86.136 112.727 86.136 112.725 86.136C112.723 86.136 112.721 86.136 112.719 86.136C112.717 86.136 112.716 86.136 112.714 86.136C112.712 86.136 112.71 86.136 112.708 86.136C112.706 86.136 112.704 86.136 112.702 86.136C112.7 86.136 112.698 86.136 112.696 86.136C112.694 86.136 112.692 86.136 112.69 86.136C112.688 86.136 112.686 86.136 112.685 86.136C112.683 86.136 112.681 86.136 112.679 86.136C112.677 86.136 112.675 86.136 112.673 86.136C112.671 86.136 112.669 86.136 112.667 86.136C112.665 86.136 112.663 86.136 112.661 86.136C112.659 86.136 112.658 86.136 112.656 86.136C112.654 86.136 112.652 86.136 112.65 86.136C112.648 86.136 112.646 86.136 112.644 86.136C112.642 86.136 112.64 86.136 112.638 86.136C112.637 86.136 112.635 86.136 112.633 86.136C112.631 86.136 112.629 86.136 112.627 86.136C112.625 86.136 112.623 86.136 112.621 86.136C112.619 86.136 112.617 86.136 112.616 86.136C112.614 86.136 112.612 86.136 112.61 86.136C112.608 86.136 112.606 86.136 112.604 86.136C112.602 86.136 112.6 86.136 112.598 86.136C112.597 86.136 112.595 86.136 112.593 86.136C112.591 86.136 112.589 86.136 112.587 86.136C112.585 86.136 112.583 86.136 112.581 86.136C112.58 86.136 112.578 86.136 112.576 86.136C112.574 86.136 112.572 86.136 112.57 86.136C112.568 86.136 112.566 86.136 112.564 86.136C112.563 86.136 112.561 86.136 112.559 86.136C112.557 86.136 112.555 86.136 112.553 86.136C112.551 86.136 112.549 86.136 112.548 86.136C112.546 86.136 112.544 86.136 112.542 86.136C112.54 86.136 112.538 86.136 112.536 86.136C112.535 86.136 112.533 86.136 112.531 86.136C112.529 86.136 112.527 86.136 112.525 86.136C112.523 86.136 112.521 86.136 112.52 86.136C112.518 86.136 112.516 86.136 112.514 86.136C112.512 86.136 112.51 86.136 112.508 86.136C112.507 86.136 112.505 86.136 112.503 86.136C112.501 86.136 112.499 86.136 112.497 86.136C112.496 86.136 112.494 86.136 112.492 86.136C112.49 86.136 112.488 86.136 112.486 86.136C112.484 86.136 112.483 86.136 112.481 86.136C112.479 86.136 112.477 86.136 112.475 86.136C112.473 86.136 112.472 86.136 112.47 86.136C112.468 86.136 112.466 86.136 112.464 86.136C112.462 86.136 112.461 86.136 112.459 86.136C112.457 86.136 112.455 86.136 112.453 86.136C112.451 86.136 112.45 86.136 112.448 86.136C112.446 86.136 112.444 86.136 112.442 86.136C112.44 86.136 112.439 86.136 112.437 86.136C112.435 86.136 112.433 86.136 112.431 86.136C112.429 86.136 112.428 86.136 112.426 86.136C112.424 86.136 112.422 86.136 112.42 86.136C112.419 86.136 112.417 86.136 112.415 86.136C112.413 86.136 112.411 86.136 112.41 86.136C112.408 86.136 112.406 86.136 112.404 86.136C112.402 86.136 112.4 86.136 112.399 86.136C112.397 86.136 112.395 86.136 112.393 86.136C112.391 86.136 112.39 86.136 112.388 86.136C112.386 86.136 112.384 86.136 112.382 86.136C112.381 86.136 112.379 86.136 112.377 86.136C112.375 86.136 112.373 86.136 112.372 86.136C112.37 86.136 112.368 86.136 112.366 86.136C112.364 86.136 112.363 86.136 112.361 86.136C112.359 86.136 112.357 86.136 112.356 86.136C112.354 86.136 112.352 86.136 112.35 86.136C112.348 86.136 112.347 86.136 112.345 86.136C112.343 86.136 112.341 86.136 112.339 86.136C112.338 86.136 112.336 86.136 112.334 86.136C112.332 86.136 112.331 86.136 112.329 86.136C112.327 86.136 112.325 86.136 112.324 86.136C112.322 86.136 112.32 86.136 112.318 86.136C112.316 86.136 112.315 86.136 112.313 86.136C112.311 86.136 112.309 86.136 112.308 86.136C112.306 86.136 112.304 86.136 112.302 86.136C112.301 86.136 112.299 86.136 112.297 86.136C112.295 86.136 112.294 86.136 112.292 86.136C112.29 86.136 112.288 86.136 112.286 86.136C112.285 86.136 112.283 86.136 112.281 86.136C112.279 86.136 112.278 86.136 112.276 86.136C112.274 86.136 112.272 86.136 112.271 86.136C112.269 86.136 112.267 86.136 112.265 86.136C112.264 86.136 112.262 86.136 112.26 86.136C112.259 86.136 112.257 86.136 112.255 86.136C112.253 86.136 112.252 86.136 112.25 86.136C112.248 86.136 112.246 86.136 112.245 86.136C112.243 86.136 112.241 86.136 112.239 86.136C112.238 86.136 112.236 86.136 112.234 86.136C112.232 86.136 112.231 86.136 112.229 86.136C112.227 86.136 112.226 86.136 112.224 86.136C112.222 86.136 112.22 86.136 112.219 86.136C112.217 86.136 112.215 86.136 112.213 86.136C112.212 86.136 112.21 86.136 112.208 86.136C112.207 86.136 112.205 86.136 112.203 86.136C112.201 86.136 112.2 86.136 112.198 86.136C112.196 86.136 112.195 86.136 112.193 86.136C112.191 86.136 112.189 86.136 112.188 86.136C112.186 86.136 112.184 86.136 112.183 86.136C112.181 86.136 112.179 86.136 112.178 86.136C112.176 86.136 112.174 86.136 112.172 86.136C112.171 86.136 112.169 86.136 112.167 86.136C112.166 86.136 112.164 86.136 112.162 86.136C112.161 86.136 112.159 86.136 112.157 86.136C112.155 86.136 112.154 86.136 112.152 86.136C112.15 86.136 112.149 86.136 112.147 86.136C112.145 86.136 112.144 86.136 112.142 86.136C112.14 86.136 112.139 86.136 112.137 86.136C112.135 86.136 112.134 86.136 112.132 86.136C112.13 86.136 112.128 86.136 112.127 86.136C112.125 86.136 112.123 86.136 112.122 86.136C112.12 86.136 112.118 86.136 112.117 86.136C112.115 86.136 112.113 86.136 112.112 86.136C112.11 86.136 112.108 86.136 112.107 86.136C112.105 86.136 112.103 86.136 112.102 86.136C112.1 86.136 112.098 86.136 112.097 86.136C112.095 86.136 112.093 86.136 112.092 86.136C112.09 86.136 112.088 86.136 112.087 86.136C112.085 86.136 112.083 86.136 112.082 86.136C112.08 86.136 112.078 86.136 112.077 86.136C112.075 86.136 112.073 86.136 112.072 86.136C112.07 86.136 112.069 86.136 112.067 86.136C112.065 86.136 112.064 86.136 112.062 86.136C112.06 86.136 112.059 86.136 112.057 86.136C112.055 86.136 112.054 86.136 112.052 86.136C112.05 86.136 112.049 86.136 112.047 86.136C112.045 86.136 112.044 86.136 112.042 86.136C112.041 86.136 112.039 86.136 112.037 86.136C112.036 86.136 112.034 86.136 112.032 86.136C112.031 86.136 112.029 86.136 112.028 86.136C112.026 86.136 112.024 86.136 112.023 86.136C112.021 86.136 112.019 86.136 112.018 86.136C112.016 86.136 112.014 86.136 112.013 86.136C112.011 86.136 112.01 86.136 112.008 86.136C112.006 86.136 112.005 86.136 112.003 86.136C112.002 86.136 112 86.136 111.998 86.136C111.997 86.136 111.995 86.136 111.993 86.136C111.992 86.136 111.99 86.136 111.989 86.136C111.987 86.136 111.985 86.136 111.984 86.136C111.982 86.136 111.981 86.136 111.979 86.136C111.977 86.136 111.976 86.136 111.974 86.136C111.973 86.136 111.971 86.136 111.969 86.136C111.968 86.136 111.966 86.136 111.965 86.136C111.963 86.136 111.961 86.136 111.96 86.136C111.958 86.136 111.957 86.136 111.955 86.136C111.953 86.136 111.952 86.136 111.95 86.136C111.949 86.136 111.947 86.136 111.945 86.136C111.944 86.136 111.942 86.136 111.941 86.136C111.939 86.136 111.937 86.136 111.936 86.136C111.934 86.136 111.933 86.136 111.931 86.136C111.93 86.136 111.928 86.136 111.926 86.136C111.925 86.136 111.923 86.136 111.922 86.136C111.92 86.136 111.919 86.136 111.917 86.136C111.915 86.136 111.914 86.136 111.912 86.136C111.911 86.136 111.909 86.136 111.908 86.136C111.906 86.136 111.904 86.136 111.903 86.136C111.901 86.136 111.9 86.136 111.898 86.136C111.897 86.136 111.895 86.136 111.893 86.136C111.892 86.136 111.89 86.136 111.889 86.136C111.887 86.136 111.886 86.136 111.884 86.136C111.883 86.136 111.881 86.136 111.879 86.136C111.878 86.136 111.876 86.136 111.875 86.136C111.873 86.136 111.872 86.136 111.87 86.136C111.869 86.136 111.867 86.136 111.865 86.136C111.864 86.136 111.862 86.136 111.861 86.136C111.859 86.136 111.858 86.136 111.856 86.136C111.855 86.136 111.853 86.136 111.852 86.136C111.85 86.136 111.848 86.136 111.847 86.136C111.845 86.136 111.844 86.136 111.842 86.136C111.841 86.136 111.839 86.136 111.838 86.136C111.836 86.136 111.835 86.136 111.833 86.136C111.832 86.136 111.83 86.136 111.829 86.136C111.827 86.136 111.825 86.136 111.824 86.136C111.822 86.136 111.821 86.136 111.819 86.136C111.818 86.136 111.816 86.136 111.815 86.136C111.813 86.136 111.812 86.136 111.81 86.136C111.809 86.136 111.807 86.136 111.806 86.136C111.804 86.136 111.803 86.136 111.801 86.136C111.8 86.136 111.798 86.136 111.797 86.136C111.795 86.136 111.794 86.136 111.792 86.136C111.791 86.136 111.789 86.136 111.788 86.136C111.786 86.136 111.785 86.136 111.783 86.136C111.782 86.136 111.78 86.136 111.779 86.136C111.777 86.136 111.776 86.136 111.774 86.136C111.773 86.136 111.771 86.136 111.77 86.136C111.768 86.136 111.767 86.136 111.765 86.136C111.764 86.136 111.762 86.136 111.761 86.136C111.759 86.136 111.758 86.136 111.756 86.136C111.755 86.136 111.753 86.136 111.752 86.136C111.75 86.136 111.749 86.136 111.747 86.136C111.746 86.136 111.744 86.136 111.743 86.136C111.741 86.136 111.74 86.136 111.738 86.136C111.737 86.136 111.735 86.136 111.734 86.136C111.732 86.136 111.731 86.136 111.729 86.136C111.728 86.136 111.727 86.136 111.725 86.136C111.724 86.136 111.722 86.136 111.721 86.136C111.719 86.136 111.718 86.136 111.716 86.136C111.715 86.136 111.713 86.136 111.712 86.136C111.71 86.136 111.709 86.136 111.707 86.136C111.706 86.136 111.705 86.136 111.703 86.136C111.702 86.136 111.7 86.136 111.699 86.136C111.697 86.136 111.696 86.136 111.694 86.136C111.693 86.136 111.691 86.136 111.69 86.136C111.689 86.136 111.687 86.136 111.686 86.136C111.684 86.136 111.683 86.136 111.681 86.136C111.68 86.136 111.678 86.136 111.677 86.136C111.675 86.136 111.674 86.136 111.673 86.136C111.671 86.136 111.67 86.136 111.668 86.136C111.667 86.136 111.665 86.136 111.664 86.136C111.663 86.136 111.661 86.136 111.66 86.136C111.658 86.136 111.657 86.136 111.655 86.136C111.654 86.136 111.652 86.136 111.651 86.136C111.65 86.136 111.648 86.136 111.647 86.136C111.645 86.136 111.644 86.136 111.642 86.136C111.641 86.136 111.64 86.136 111.638 86.136C111.637 86.136 111.635 86.136 111.634 86.136C111.633 86.136 111.631 86.136 111.63 86.136C111.628 86.136 111.627 86.136 111.625 86.136C111.624 86.136 111.623 86.136 111.621 86.136C111.62 86.136 111.618 86.136 111.617 86.136C111.616 86.136 111.614 86.136 111.613 86.136C111.611 86.136 111.61 86.136 111.609 86.136C111.607 86.136 111.606 86.136 111.604 86.136C111.603 86.136 111.601 86.136 111.6 86.136C111.599 86.136 111.597 86.136 111.596 86.136C111.595 86.136 111.593 86.136 111.592 86.136C111.59 86.136 111.589 86.136 111.588 86.136C111.586 86.136 111.585 86.136 111.583 86.136C111.582 86.136 111.581 86.136 111.579 86.136C111.578 86.136 111.576 86.136 111.575 86.136C111.574 86.136 111.572 86.136 111.571 86.136C111.569 86.136 111.568 86.136 111.567 86.136C111.565 86.136 111.564 86.136 111.563 86.136C111.561 86.136 111.56 86.136 111.558 86.136C111.557 86.136 111.556 86.136 111.554 86.136C111.553 86.136 111.552 86.136 111.55 86.136C111.549 86.136 111.547 86.136 111.546 86.136C111.545 86.136 111.543 86.136 111.542 86.136C111.541 86.136 111.539 86.136 111.538 86.136C111.537 86.136 111.535 86.136 111.534 86.136C111.532 86.136 111.531 86.136 111.53 86.136C111.528 86.136 111.527 86.136 111.526 86.136C111.524 86.136 111.523 86.136 111.522 86.136C111.52 86.136 111.519 86.136 111.518 86.136C111.516 86.136 111.515 86.136 111.513 86.136C111.512 86.136 111.511 86.136 111.509 86.136C111.508 86.136 111.507 86.136 111.505 86.136C111.504 86.136 111.503 86.136 111.501 86.136C111.5 86.136 111.499 86.136 111.497 86.136C111.496 86.136 111.495 86.136 111.493 86.136C111.492 86.136 111.491 86.136 111.489 86.136C111.488 86.136 111.487 86.136 111.485 86.136C111.484 86.136 111.483 86.136 111.481 86.136C111.48 86.136 111.479 86.136 111.477 86.136C111.476 86.136 111.475 86.136 111.473 86.136C111.472 86.136 111.471 86.136 111.469 86.136C111.468 86.136 111.467 86.136 111.465 86.136C111.464 86.136 111.463 86.136 111.461 86.136C111.46 86.136 111.459 86.136 111.457 86.136C111.456 86.136 111.455 86.136 111.454 86.136C111.452 86.136 111.451 86.136 111.45 86.136C111.448 86.136 111.447 86.136 111.446 86.136C111.444 86.136 111.443 86.136 111.442 86.136C111.44 86.136 111.439 86.136 111.438 86.136C111.437 86.136 111.435 86.136 111.434 86.136C111.433 86.136 111.431 86.136 111.43 86.136C111.429 86.136 111.427 86.136 111.426 86.136C111.425 86.136 111.424 86.136 111.422 86.136C111.421 86.136 111.42 86.136 111.418 86.136C111.417 86.136 111.416 86.136 111.415 86.136C111.413 86.136 111.412 86.136 111.411 86.136C111.409 86.136 111.408 86.136 111.407 86.136C111.406 86.136 111.404 86.136 111.403 86.136C111.402 86.136 111.4 86.136 111.399 86.136C111.398 86.136 111.397 86.136 111.395 86.136C111.394 86.136 111.393 86.136 111.391 86.136C111.39 86.136 111.389 86.136 111.388 86.136C111.386 86.136 111.385 86.136 111.384 86.136C111.383 86.136 111.381 86.136 111.38 86.136C111.379 86.136 111.377 86.136 111.376 86.136C111.375 86.136 111.374 86.136 111.372 86.136C111.371 86.136 111.37 86.136 111.369 86.136C111.367 86.136 111.366 86.136 111.365 86.136C111.364 86.136 111.362 86.136 111.361 86.136C111.36 86.136 111.359 86.136 111.357 86.136C111.356 86.136 111.355 86.136 111.354 86.136C111.352 86.136 111.351 86.136 111.35 86.136C111.349 86.136 111.347 86.136 111.346 86.136C111.345 86.136 111.344 86.136 111.342 86.136C111.341 86.136 111.34 86.136 111.339 86.136C111.337 86.136 111.336 86.136 111.335 86.136C111.334 86.136 111.332 86.136 111.331 86.136C111.33 86.136 111.329 86.136 111.328 86.136C111.326 86.136 111.325 86.136 111.324 86.136C111.323 86.136 111.321 86.136 111.32 86.136C111.319 86.136 111.318 86.136 111.316 86.136C111.315 86.136 111.314 86.136 111.313 86.136C111.312 86.136 111.31 86.136 111.309 86.136C111.308 86.136 111.307 86.136 111.306 86.136C111.304 86.136 111.303 86.136 111.302 86.136C111.301 86.136 111.299 86.136 111.298 86.136C111.297 86.136 111.296 86.136 111.295 86.136C111.293 86.136 111.292 86.136 111.291 86.136C111.29 86.136 111.289 86.136 111.287 86.136C111.286 86.136 111.285 86.136 111.284 86.136C111.283 86.136 111.281 86.136 111.28 86.136C111.279 86.136 111.278 86.136 111.277 86.136C111.275 86.136 111.274 86.136 111.273 86.136C111.272 86.136 111.271 86.136 111.269 86.136C111.268 86.136 111.267 86.136 111.266 86.136C111.265 86.136 111.263 86.136 111.262 86.136C111.261 86.136 111.26 86.136 111.259 86.136C111.257 86.136 111.256 86.136 111.255 86.136C111.254 86.136 111.253 86.136 111.252 86.136C111.25 86.136 111.249 86.136 111.248 86.136C111.247 86.136 111.246 86.136 111.244 86.136C111.243 86.136 111.242 86.136 111.241 86.136C111.24 86.136 111.239 86.136 111.237 86.136C111.236 86.136 111.235 86.136 111.234 86.136C111.233 86.136 111.232 86.136 111.23 86.136C111.229 86.136 111.228 86.136 111.227 86.136C111.226 86.136 111.225 86.136 111.223 86.136C111.222 86.136 111.221 86.136 111.22 86.136C111.219 86.136 111.218 86.136 111.216 86.136C111.215 86.136 111.214 86.136 111.213 86.136C111.212 86.136 111.211 86.136 111.21 86.136C111.208 86.136 111.207 86.136 111.206 86.136C111.205 86.136 111.204 86.136 111.203 86.136C111.201 86.136 111.2 86.136 111.199 86.136C111.198 86.136 111.197 86.136 111.196 86.136C111.195 86.136 111.193 86.136 111.192 86.136C111.191 86.136 111.19 86.136 111.189 86.136C111.188 86.136 111.187 86.136 111.186 86.136C111.184 86.136 111.183 86.136 111.182 86.136C111.181 86.136 111.18 86.136 111.179 86.136C111.178 86.136 111.176 86.136 111.175 86.136C111.174 86.136 111.173 86.136 111.172 86.136V90.136ZM113.965 90.1332C115.181 90.0692 116.397 90.0052 117.613 89.9412L117.403 85.9468C116.187 86.0108 114.971 86.0748 113.755 86.1388L113.965 90.1332ZM117.613 89.9412C118.835 89.8769 119.869 89.7753 120.585 89.5963L119.615 85.7157C119.307 85.7927 118.613 85.8831 117.403 85.9468L117.613 89.9412ZM122.1 87.656V82.184H118.1V87.656H122.1Z" fill="black"/>
</svg>
